<?xml version="1.0" standalone="no"?>
<!DOCTYPE svg PUBLIC "-//W3C//DTD SVG 20010904//EN"
 "http://www.w3.org/TR/2001/REC-SVG-20010904/DTD/svg10.dtd">
<svg version="1.0" xmlns="http://www.w3.org/2000/svg"
 width="500.000000pt" height="500.000000pt" viewBox="0 0 500.000000 500.000000"
 preserveAspectRatio="xMidYMid meet">
<metadata>
Created by potrace 1.11, written by Peter Selinger 2001-2013
</metadata>
<g transform="translate(0.000000,500.000000) scale(0.100000,-0.100000)"
fill="#000000" stroke="none">
<path d="M915 3500 l-330 -5 -67 -110 c-78 -127 -181 -304 -228 -390 -18 -33
-49 -89 -68 -125 -19 -36 -71 -135 -114 -222 l-80 -156 88 -174 c108 -214 247
-464 372 -668 51 -85 96 -157 98 -159 6 -6 3763 -9 3786 -3 34 8 295 452 485
827 l92 180 -26 50 c-61 121 -187 360 -213 404 -15 27 -43 75 -60 107 -41 74
-237 402 -256 428 -13 19 -49 19 -1581 20 -863 1 -1716 -1 -1898 -4z m1913
-405 c19 -49 42 -109 52 -131 11 -23 22 -53 25 -66 11 -41 52 -78 88 -78 47 1
69 24 130 140 94 178 123 225 138 223 48 -6 149 -47 149 -61 0 -5 -29 -63 -66
-128 -120 -219 -244 -474 -244 -503 0 -28 128 -290 259 -526 68 -125 71 -113
-38 -151 l-64 -23 -16 22 c-19 26 -28 41 -88 155 -83 156 -90 167 -119 184
-24 13 -35 14 -62 5 -42 -15 -48 -26 -130 -232 l-48 -120 -38 3 c-20 2 -59 13
-86 25 l-49 22 26 65 c60 151 163 400 194 465 18 39 33 86 33 105 0 21 -24 89
-61 170 -67 151 -193 462 -193 478 0 6 21 17 48 26 120 38 119 38 160 -69z
m1146 44 c142 -38 212 -151 229 -367 l5 -53 -95 3 -95 3 -3 72 c-5 130 -44
191 -129 200 -98 11 -164 -27 -187 -109 -15 -50 -21 -658 -8 -740 19 -118 80
-179 175 -174 73 4 126 58 140 141 6 34 8 63 13 168 1 15 12 17 94 17 l93 0
-2 -62 c-13 -305 -130 -432 -384 -415 -176 11 -274 108 -312 307 -12 62 -16
571 -5 668 17 161 81 276 177 319 84 38 202 47 294 22z m-2938 2 c6 -1 17 -34
24 -73 7 -40 14 -82 16 -93 2 -11 7 -33 10 -50 3 -16 14 -75 24 -130 11 -55
22 -116 25 -135 3 -19 15 -82 26 -140 25 -134 58 -308 64 -339 2 -13 6 -25 8
-28 4 -3 16 61 22 112 1 9 8 46 20 105 3 14 12 63 21 110 8 47 39 213 67 370
l53 285 54 5 c30 3 89 3 130 0 l76 -5 -1 -650 0 -650 -92 -3 -93 -3 -1 508
c-1 535 -1 530 -37 323 -7 -36 -23 -126 -36 -200 -14 -75 -28 -151 -31 -170
-3 -19 -8 -42 -10 -50 -2 -8 -7 -35 -10 -60 -4 -25 -11 -64 -16 -88 -5 -23
-12 -59 -15 -80 -3 -20 -7 -44 -9 -52 -3 -8 -7 -33 -10 -55 -12 -77 -9 -75
-86 -75 -48 0 -69 4 -70 13 0 6 -2 22 -5 34 -2 12 -17 97 -34 190 -17 92 -35
188 -40 213 -5 25 -12 61 -14 80 -3 19 -15 85 -26 145 -12 61 -23 124 -26 140
-2 17 -6 39 -8 50 -3 11 -8 41 -12 68 -3 26 -9 47 -13 47 -3 0 -6 -215 -5
-477 0 -263 -2 -484 -4 -490 -3 -9 -31 -13 -93 -13 l-89 0 0 113 c-1 246 -1
1124 -1 1159 l1 37 83 3 c70 3 110 2 163 -1z m1202 -6 c160 -15 242 -81 275
-221 19 -84 20 -704 1 -802 -17 -92 -47 -153 -93 -195 -78 -71 -131 -83 -376
-85 l-181 -2 0 655 0 654 106 3 c119 3 178 2 268 -7z"/>
<path d="M2083 3002 l-33 -3 0 -516 0 -515 94 4 c77 4 99 9 126 28 65 47 68
60 69 470 1 243 -2 382 -9 411 -20 77 -58 108 -144 116 -28 2 -55 5 -61 6 -5
1 -25 1 -42 -1z"/>
</g>
</svg>
