<?xml version="1.0" standalone="no"?>
<!DOCTYPE svg PUBLIC "-//W3C//DTD SVG 20010904//EN"
 "http://www.w3.org/TR/2001/REC-SVG-20010904/DTD/svg10.dtd">
<svg version="1.0" xmlns="http://www.w3.org/2000/svg"
 width="16.000000pt" height="16.000000pt" viewBox="0 0 16.000000 16.000000"
 preserveAspectRatio="xMidYMid meet">
<metadata>
Created by potrace 1.11, written by Peter Selinger 2001-2013
</metadata>
<g transform="translate(0.000000,16.000000) scale(0.003200,-0.003200)"
fill="#000000" stroke="none">
<path d="M3114 4418 l-621 -248 -409 160 c-412 162 -666 261 -782 306 -46 18
-64 21 -67 12 -2 -7 -11 -65 -20 -128 -8 -63 -18 -132 -21 -152 -3 -21 -6 -50
-8 -65 -2 -15 -7 -44 -10 -63 -12 -71 -16 -96 -22 -140 -3 -25 -9 -70 -14
-100 -6 -30 -12 -72 -15 -94 -8 -65 -15 -118 -25 -176 -13 -77 -42 -274 -54
-360 -3 -27 -16 -39 -164 -158 -81 -64 -152 -121 -158 -127 -6 -5 -27 -23 -47
-38 -19 -15 -89 -71 -155 -125 -66 -53 -210 -171 -321 -261 -111 -89 -201
-165 -199 -167 4 -3 385 -308 815 -652 l229 -182 13 -93 c7 -50 15 -101 17
-112 5 -26 16 -95 19 -122 3 -24 15 -94 21 -128 2 -10 6 -37 9 -60 3 -22 21
-134 40 -250 18 -116 36 -228 39 -250 4 -22 9 -53 11 -70 3 -16 7 -41 9 -55
23 -149 30 -180 41 -180 11 0 77 24 150 55 17 7 269 108 561 224 l531 212 49
-22 c27 -11 65 -26 84 -33 45 -17 247 -95 280 -109 14 -5 30 -11 35 -13 6 -1
187 -73 404 -158 217 -86 396 -154 398 -152 6 5 5 3 47 291 14 94 28 188 31
210 3 23 7 50 9 60 2 11 7 43 10 70 4 28 11 75 16 105 5 30 12 75 15 100 3 25
8 56 10 70 9 54 24 157 31 205 3 28 8 58 10 69 2 10 6 44 10 75 3 31 11 62 16
69 6 6 242 197 524 423 l514 411 -524 419 -523 419 -7 47 c-9 65 -13 92 -46
293 -16 96 -31 195 -35 220 -3 25 -8 56 -10 70 -3 14 -7 41 -10 60 -3 19 -8
46 -10 60 -11 64 -27 167 -30 190 -2 14 -6 41 -9 60 -14 79 -16 97 -21 136 -7
55 -32 185 -36 188 -2 1 -283 -109 -625 -246z m476 -96 c5 -28 12 -73 16 -99
3 -26 8 -57 10 -68 2 -11 7 -38 10 -60 5 -43 12 -85 19 -125 2 -14 7 -43 10
-65 3 -23 7 -50 9 -60 2 -11 7 -42 10 -70 4 -27 9 -57 11 -65 2 -8 6 -37 10
-65 3 -27 10 -75 15 -105 5 -30 12 -73 15 -95 2 -22 7 -50 9 -62 5 -22 15 -15
-292 -212 -56 -36 -140 -90 -185 -120 -45 -29 -156 -101 -246 -158 l-163 -105
-47 44 c-77 74 -126 101 -229 128 -33 9 -42 15 -38 28 3 9 8 58 12 107 3 50 8
92 9 95 2 3 6 39 9 80 4 41 9 91 11 110 2 19 7 64 10 100 4 36 8 81 10 100 2
19 7 67 10 105 4 39 8 81 10 95 2 14 7 57 10 95 7 72 14 128 18 132 5 5 932
371 934 369 2 -1 7 -26 13 -54z m-2162 39 c9 -6 148 -60 307 -122 684 -263
617 -235 621 -266 2 -9 5 -53 9 -97 3 -45 8 -92 10 -106 2 -14 7 -61 10 -105
4 -44 8 -93 10 -110 3 -16 7 -64 10 -105 3 -41 8 -88 10 -105 8 -64 28 -302
29 -339 1 -36 -1 -39 -29 -43 -85 -11 -199 -70 -256 -134 -14 -16 -29 -29 -33
-29 -7 0 -112 68 -458 295 -76 49 -199 130 -273 179 l-136 88 6 42 c3 22 8 52
10 66 2 14 7 48 10 75 3 28 8 61 10 75 8 56 15 108 21 155 3 28 7 57 9 65 1 8
6 40 10 70 3 30 8 66 10 80 3 14 7 48 10 75 3 28 8 61 10 75 2 14 9 61 15 105
9 68 16 112 19 123 2 4 11 2 29 -7z m-198 -1281 c41 -18 112 -47 158 -66 46
-19 102 -42 125 -52 23 -11 159 -68 302 -127 143 -60 261 -109 263 -110 1 -1
-7 -28 -19 -61 -25 -72 -28 -197 -6 -267 l16 -49 -475 -234 c-261 -129 -480
-234 -485 -234 -10 0 -40 21 -109 77 -30 25 -230 180 -300 233 -40 30 -77 60
-84 65 -19 18 -226 179 -262 204 -19 13 -34 26 -34 30 0 3 12 15 27 25 14 11
123 98 242 194 270 218 270 218 405 328 125 102 108 99 236 44z m2935 -170
c143 -110 269 -209 280 -219 11 -10 33 -26 50 -37 16 -10 37 -26 45 -34 15
-14 37 -31 108 -84 l33 -24 -103 -84 c-56 -45 -150 -121 -209 -168 -58 -47
-185 -149 -282 -228 l-176 -142 -73 34 c-93 43 -214 100 -353 166 -60 28 -132
62 -160 75 -27 13 -104 49 -170 80 -66 31 -150 70 -186 87 l-65 30 13 51 c21
82 16 169 -18 285 -3 10 144 73 491 212 272 109 500 198 505 199 6 0 127 -89
270 -199z m-863 -943 c371 -269 433 -317 432 -338 -1 -31 -26 -224 -39 -309
-2 -14 -7 -47 -10 -75 -4 -27 -8 -61 -10 -75 -2 -14 -6 -43 -9 -65 -3 -22 -15
-103 -25 -180 -11 -77 -23 -162 -26 -190 -9 -71 -14 -97 -18 -101 -3 -4 -945
350 -952 358 -2 2 -6 35 -10 73 -3 39 -8 90 -10 115 -3 25 -7 70 -10 100 -3
30 -7 75 -10 100 -12 112 -15 149 -20 210 -7 84 -20 217 -30 300 -2 19 -7 69
-11 111 l-6 76 42 7 c76 12 151 55 220 127 36 36 66 67 67 68 1 0 196 -140
435 -312z m-1141 244 c68 -71 176 -127 256 -133 l25 -3 -7 -95 c-4 -52 -8
-101 -10 -110 -2 -8 -6 -53 -10 -100 -3 -47 -8 -96 -10 -110 -2 -14 -6 -59
-10 -100 -7 -88 -14 -158 -20 -220 -9 -83 -14 -145 -21 -225 -7 -95 -11 -116
-21 -126 -5 -4 -107 -46 -228 -94 -121 -47 -233 -93 -250 -100 -45 -21 -408
-163 -424 -167 -15 -3 -16 2 -36 132 -3 25 -18 115 -31 200 -13 85 -29 187
-34 225 -6 39 -13 81 -15 95 -17 102 -37 234 -42 278 -5 48 -3 54 22 75 30 24
109 85 276 212 57 43 109 83 114 88 6 4 78 60 160 123 83 64 175 136 205 160
30 23 57 43 59 44 3 0 26 -22 52 -49z"/>
</g>
</svg>
